<svg viewBox="0 0 39 36" xmlns="http://www.w3.org/2000/svg" width="39" height="36">
  <path class="heart" d="M17.5 2.5C15.5 0.5 12.5 0.5 10.5 2.5C8.5 4.5 8.5 7.5 10.5 9.5L17.5 16.5L24.5 9.5C26.5 7.5 26.5 4.5 24.5 2.5C22.5 0.5 19.5 0.5 17.5 2.5Z" fill="transparent" stroke="currentColor" stroke-width="1"/>
  <path class="heart" d="M17.5 2.5C15.5 0.5 12.5 0.5 10.5 2.5C8.5 4.5 8.5 7.5 10.5 9.5L17.5 16.5L24.5 9.5C26.5 7.5 26.5 4.5 24.5 2.5C22.5 0.5 19.5 0.5 17.5 2.5Z" fill="currentColor" stroke="currentColor" stroke-width="1" class="core"/>
</svg>

