<svg viewBox="0 0 27 24" xmlns="http://www.w3.org/2000/svg" xmlns:xlink="http://www.w3.org/1999/xlink" width="27.000000" height="24.000000" fill="none" customFrame="#000000">
	<g id="heart">
		<path id="Vector" d="M6 0L3 0L3 3L6 3L6 0Z" fill="rgb(0,0,0)" fill-rule="evenodd" />
		<path id="Vector" d="M9 0L6 0L6 3L9 3L9 0Z" fill="rgb(0,0,0)" fill-rule="evenodd" />
		<path id="Vector" d="M3 3L0 3L0 6L3 6L3 3Z" fill="rgb(0,0,0)" fill-rule="evenodd" />
		<path id="Vector" d="M3 6L0 6L0 9L3 9L3 6Z" fill="rgb(0,0,0)" fill-rule="evenodd" />
		<path id="Vector" d="M3 9L0 9L0 12L3 12L3 9Z" fill="rgb(0,0,0)" fill-rule="evenodd" />
		<path id="Vector" d="M12 0L9 0L9 3L12 3L12 0Z" fill="rgb(0,0,0)" fill-rule="evenodd" />
		<path id="Vector" d="M6 12L3 12L3 15L6 15L6 12Z" fill="rgb(0,0,0)" fill-rule="evenodd" />
		<path id="Vector" d="M9 15L6 15L6 18L9 18L9 15Z" fill="rgb(0,0,0)" fill-rule="evenodd" />
		<path id="Vector" d="M12 18L9 18L9 21L12 21L12 18Z" fill="rgb(0,0,0)" fill-rule="evenodd" />
		<path id="Vector" d="M3 0L0 0L0 3L3 3L3 0Z" fill="rgb(0,0,0)" fill-rule="evenodd" transform="matrix(-1,0,0,1,24,0)" />
		<path id="Vector" d="M3 0L0 0L0 3L3 3L3 0Z" fill="rgb(0,0,0)" fill-rule="evenodd" transform="matrix(-1,0,0,1,21,0)" />
		<path id="Vector" d="M3 0L0 0L0 3L3 3L3 0Z" fill="rgb(0,0,0)" fill-rule="evenodd" transform="matrix(-1,0,0,1,27,3)" />
		<path id="Vector" d="M3 0L0 0L0 3L3 3L3 0Z" fill="rgb(0,0,0)" fill-rule="evenodd" transform="matrix(-1,0,0,1,27,6)" />
		<path id="Vector" d="M3 0L0 0L0 3L3 3L3 0Z" fill="rgb(0,0,0)" fill-rule="evenodd" transform="matrix(-1,0,0,1,27,9)" />
		<path id="Vector" d="M3 0L0 0L0 3L3 3L3 0Z" fill="rgb(0,0,0)" fill-rule="evenodd" transform="matrix(-1,0,0,1,18,0)" />
		<path id="Vector" d="M3 0L0 0L0 3L3 3L3 0Z" fill="rgb(0,0,0)" fill-rule="evenodd" transform="matrix(-1,0,0,1,24,12)" />
		<path id="Vector" d="M3 0L0 0L0 3L3 3L3 0Z" fill="rgb(0,0,0)" fill-rule="evenodd" transform="matrix(-1,0,0,1,21,15)" />
		<path id="Vector" d="M3 0L0 0L0 3L3 3L3 0Z" fill="rgb(0,0,0)" fill-rule="evenodd" transform="matrix(-1,0,0,1,18,18)" />
		<path id="Vector" d="M15 3L12 3L12 6L15 6L15 3Z" fill="rgb(0,0,0)" fill-rule="evenodd" />
		<path id="Vector" d="M15 21L12 21L12 24L15 24L15 21Z" fill="rgb(0,0,0)" fill-rule="evenodd" />
	</g>
</svg>
