<svg style="display: none;">
      <symbol id="floppy" viewBox="0 0 28 28" fill="none" xmlns="http://www.w3.org/2000/svg">
        <rect width="2.153846" height="2.153846" x="0.000000" y="0.000000" fill="rgb(0,0,0)" />
        <rect width="2.153846" height="2.153846" x="0.000000" y="2.154297" fill="rgb(0,0,0)" />
        <rect width="2.153846" height="2.153846" x="0.000000" y="4.307617" fill="rgb(0,0,0)" />
        <rect width="2.153846" height="2.153846" x="0.000000" y="6.460938" fill="rgb(0,0,0)" />
        <rect width="2.153846" height="2.153846" x="0.000000" y="8.615234" fill="rgb(0,0,0)" />
        <rect width="2.153846" height="2.153846" x="0.000000" y="10.769531" fill="rgb(0,0,0)" />
        <rect width="2.153846" height="2.153846" x="0.000000" y="12.923828" fill="rgb(0,0,0)" />
        <rect width="2.153846" height="2.153846" x="0.000000" y="15.076172" fill="rgb(0,0,0)" />
        <rect width="2.153846" height="2.153846" x="0.000000" y="17.230469" fill="rgb(0,0,0)" />
        <rect width="2.153846" height="2.153846" x="0.000000" y="19.384766" fill="rgb(0,0,0)" />
        <rect width="2.153846" height="2.153846" x="0.000000" y="21.539062" fill="rgb(0,0,0)" />
        <rect width="2.153846" height="2.153846" x="0.000000" y="23.692383" fill="rgb(0,0,0)" />
        <rect width="2.153846" height="2.153846" x="0.000000" y="25.845703" fill="rgb(0,0,0)" />
        <rect width="2.153846" height="2.153846" x="0.000000" y="0.000000" fill="rgb(0,0,0)" transform="matrix(-4.37114e-08,1,-1,-4.37114e-08,23.6927,0)" />
        <rect width="2.153846" height="2.153846" x="0.000000" y="0.000000" fill="rgb(0,0,0)" transform="matrix(-4.37114e-08,1,-1,-4.37114e-08,21.5391,0)" />
        <rect width="2.153846" height="2.153846" x="0.000000" y="0.000000" fill="rgb(0,0,0)" transform="matrix(-4.37114e-08,1,-1,-4.37114e-08,19.3841,0)" />
        <rect width="2.153846" height="2.153846" x="0.000000" y="0.000000" fill="rgb(0,0,0)" transform="matrix(-4.37114e-08,1,-1,-4.37114e-08,17.2305,0)" />
        <rect width="2.153846" height="2.153846" x="0.000000" y="0.000000" fill="rgb(0,0,0)" transform="matrix(-4.37114e-08,1,-1,-4.37114e-08,15.0768,0)" />
        <rect width="2.153846" height="2.153846" x="0.000000" y="0.000000" fill="rgb(0,0,0)" transform="matrix(-4.37114e-08,1,-1,-4.37114e-08,12.9232,0)" />
        <rect width="2.153846" height="2.153846" x="0.000000" y="0.000000" fill="rgb(0,0,0)" transform="matrix(-4.37114e-08,1,-1,-4.37114e-08,10.7695,0)" />
        <rect width="2.153846" height="2.153846" x="0.000000" y="0.000000" fill="rgb(0,0,0)" transform="matrix(-4.37114e-08,1,-1,-4.37114e-08,8.61589,0)" />
        <rect width="2.153846" height="2.153846" x="0.000000" y="0.000000" fill="rgb(0,0,0)" transform="matrix(-4.37114e-08,1,-1,-4.37114e-08,6.46094,0)" />
        <rect width="2.153846" height="2.153846" x="0.000000" y="0.000000" fill="rgb(0,0,0)" transform="matrix(-4.37114e-08,1,-1,-4.37114e-08,4.3073,0)" />
        <rect width="2.153846" height="2.153846" x="0.000000" y="0.000000" fill="rgb(0,0,0)" transform="matrix(-4.37114e-08,1,-1,-4.37114e-08,25.8464,2.1543)" />
        <rect width="2.153846" height="2.153846" x="0.000000" y="0.000000" fill="rgb(0,0,0)" transform="matrix(-4.37114e-08,1,-1,-4.37114e-08,6.46094,4.30762)" />
        <rect width="2.153846" height="2.153846" x="0.000000" y="0.000000" fill="rgb(0,0,0)" transform="matrix(-4.37114e-08,1,-1,-4.37114e-08,6.46094,2.1543)" />
        <rect width="2.153846" height="2.153846" x="0.000000" y="0.000000" fill="rgb(0,0,0)" transform="matrix(-4.37114e-08,1,-1,-4.37114e-08,6.46094,6.46094)" />
        <rect width="2.153846" height="2.153846" x="0.000000" y="0.000000" fill="rgb(0,0,0)" transform="matrix(-4.37114e-08,1,-1,-4.37114e-08,21.5391,4.30762)" />
        <rect width="2.153846" height="2.153846" x="0.000000" y="0.000000" fill="rgb(0,0,0)" transform="matrix(-4.37114e-08,1,-1,-4.37114e-08,21.5391,2.1543)" />
        <rect width="2.153846" height="2.153846" x="0.000000" y="0.000000" fill="rgb(0,0,0)" transform="matrix(-4.37114e-08,1,-1,-4.37114e-08,21.5391,6.46094)" />
        <rect width="2.153846" height="2.153846" x="0.000000" y="0.000000" fill="rgb(0,0,0)" transform="matrix(-4.37114e-08,1,-1,-4.37114e-08,17.2305,4.30762)" />
        <rect width="2.153846" height="2.153846" x="0.000000" y="0.000000" fill="rgb(0,0,0)" transform="matrix(-4.37114e-08,1,-1,-4.37114e-08,17.2305,2.1543)" />
        <rect width="2.153846" height="2.153846" x="0.000000" y="0.000000" fill="rgb(0,0,0)" transform="matrix(-4.37114e-08,1,-1,-4.37114e-08,17.2305,6.46094)" />
        <rect width="2.153846" height="2.153846" x="0.000000" y="0.000000" fill="rgb(0,0,0)" transform="matrix(-4.37114e-08,1,-1,-4.37114e-08,21.5391,8.61523)" />
        <rect width="2.153846" height="2.153846" x="0.000000" y="0.000000" fill="rgb(0,0,0)" transform="matrix(-4.37114e-08,1,-1,-4.37114e-08,19.3841,8.61523)" />
        <rect width="2.153846" height="2.153846" x="0.000000" y="0.000000" fill="rgb(0,0,0)" transform="matrix(-4.37114e-08,1,-1,-4.37114e-08,17.2305,8.61523)" />
        <rect width="2.153846" height="2.153846" x="0.000000" y="0.000000" fill="rgb(0,0,0)" transform="matrix(-4.37114e-08,1,-1,-4.37114e-08,15.0768,8.61523)" />
        <rect width="2.153846" height="2.153846" x="0.000000" y="0.000000" fill="rgb(0,0,0)" transform="matrix(-4.37114e-08,1,-1,-4.37114e-08,12.9232,8.61523)" />
        <rect width="2.153846" height="2.153846" x="0.000000" y="0.000000" fill="rgb(0,0,0)" transform="matrix(-4.37114e-08,1,-1,-4.37114e-08,10.7695,8.61523)" />
        <rect width="2.153846" height="2.153846" x="0.000000" y="0.000000" fill="rgb(0,0,0)" transform="matrix(-4.37114e-08,1,-1,-4.37114e-08,8.61589,8.61523)" />
        <rect width="2.153846" height="2.153846" x="0.000000" y="0.000000" fill="rgb(0,0,0)" transform="matrix(-4.37114e-08,1,-1,-4.37114e-08,6.46094,8.61523)" />
        <rect width="2.153846" height="2.153846" x="0.000000" y="0.000000" fill="rgb(0,0,0)" transform="matrix(-4.37114e-08,1,-1,-4.37114e-08,23.6927,15.0762)" />
        <rect width="2.153846" height="2.153846" x="0.000000" y="0.000000" fill="rgb(0,0,0)" transform="matrix(-4.37114e-08,1,-1,-4.37114e-08,21.5391,15.0762)" />
        <rect width="2.153846" height="2.153846" x="0.000000" y="0.000000" fill="rgb(0,0,0)" transform="matrix(-4.37114e-08,1,-1,-4.37114e-08,19.3841,15.0762)" />
        <rect width="2.153846" height="2.153846" x="0.000000" y="0.000000" fill="rgb(0,0,0)" transform="matrix(-4.37114e-08,1,-1,-4.37114e-08,17.2305,15.0762)" />
        <rect width="2.153846" height="2.153846" x="0.000000" y="0.000000" fill="rgb(0,0,0)" transform="matrix(-4.37114e-08,1,-1,-4.37114e-08,15.0768,15.0762)" />
        <rect width="2.153846" height="2.153846" x="0.000000" y="0.000000" fill="rgb(0,0,0)" transform="matrix(-4.37114e-08,1,-1,-4.37114e-08,12.9232,15.0762)" />
        <rect width="2.153846" height="2.153846" x="0.000000" y="0.000000" fill="rgb(0,0,0)" transform="matrix(-4.37114e-08,1,-1,-4.37114e-08,10.7695,15.0762)" />
        <rect width="2.153846" height="2.153846" x="0.000000" y="0.000000" fill="rgb(0,0,0)" transform="matrix(-4.37114e-08,1,-1,-4.37114e-08,8.61589,15.0762)" />
        <rect width="2.153846" height="2.153846" x="0.000000" y="0.000000" fill="rgb(0,0,0)" transform="matrix(-4.37114e-08,1,-1,-4.37114e-08,6.46094,15.0762)" />
        <rect width="2.153846" height="2.153846" x="0.000000" y="0.000000" fill="rgb(0,0,0)" transform="matrix(-4.37114e-08,1,-1,-4.37114e-08,23.6927,17.2305)" />
        <rect width="2.153846" height="2.153846" x="0.000000" y="0.000000" fill="rgb(0,0,0)" transform="matrix(-4.37114e-08,1,-1,-4.37114e-08,6.46094,17.2305)" />
        <rect width="2.153846" height="2.153846" x="0.000000" y="0.000000" fill="rgb(0,0,0)" transform="matrix(-4.37114e-08,1,-1,-4.37114e-08,23.6927,19.3848)" />
        <rect width="2.153846" height="2.153846" x="0.000000" y="0.000000" fill="rgb(0,0,0)" transform="matrix(-4.37114e-08,1,-1,-4.37114e-08,6.46094,19.3848)" />
        <rect width="2.153846" height="2.153846" x="0.000000" y="0.000000" fill="rgb(0,0,0)" transform="matrix(-4.37114e-08,1,-1,-4.37114e-08,23.6927,21.5391)" />
        <rect width="2.153846" height="2.153846" x="0.000000" y="0.000000" fill="rgb(0,0,0)" transform="matrix(-4.37114e-08,1,-1,-4.37114e-08,6.46094,21.5391)" />
        <rect width="2.153846" height="2.153846" x="0.000000" y="0.000000" fill="rgb(0,0,0)" transform="matrix(-4.37114e-08,1,-1,-4.37114e-08,6.46094,23.6924)" />
        <rect width="2.153846" height="2.153846" x="0.000000" y="0.000000" fill="rgb(0,0,0)" transform="matrix(-4.37114e-08,1,-1,-4.37114e-08,23.6927,23.6924)" />
        <rect width="2.153846" height="2.153846" x="0.000000" y="0.000000" fill="rgb(0,0,0)" transform="matrix(-4.37114e-08,1,-1,-4.37114e-08,25.8464,25.8457)" />
        <rect width="2.153846" height="2.153846" x="0.000000" y="0.000000" fill="rgb(0,0,0)" transform="matrix(-4.37114e-08,1,-1,-4.37114e-08,23.6927,25.8457)" />
        <rect width="2.153846" height="2.153846" x="0.000000" y="0.000000" fill="rgb(0,0,0)" transform="matrix(-4.37114e-08,1,-1,-4.37114e-08,21.5391,25.8457)" />
        <rect width="2.153846" height="2.153846" x="0.000000" y="0.000000" fill="rgb(0,0,0)" transform="matrix(-4.37114e-08,1,-1,-4.37114e-08,19.3841,25.8457)" />
        <rect width="2.153846" height="2.153846" x="0.000000" y="0.000000" fill="rgb(0,0,0)" transform="matrix(-4.37114e-08,1,-1,-4.37114e-08,17.2305,25.8457)" />
        <rect width="2.153846" height="2.153846" x="0.000000" y="0.000000" fill="rgb(0,0,0)" transform="matrix(-4.37114e-08,1,-1,-4.37114e-08,15.0768,25.8457)" />
        <rect width="2.153846" height="2.153846" x="0.000000" y="0.000000" fill="rgb(0,0,0)" transform="matrix(-4.37114e-08,1,-1,-4.37114e-08,12.9232,25.8457)" />
        <rect width="2.153846" height="2.153846" x="0.000000" y="0.000000" fill="rgb(0,0,0)" transform="matrix(-4.37114e-08,1,-1,-4.37114e-08,10.7695,25.8457)" />
        <rect width="2.153846" height="2.153846" x="0.000000" y="0.000000" fill="rgb(0,0,0)" transform="matrix(-4.37114e-08,1,-1,-4.37114e-08,8.61589,25.8457)" />
        <rect width="2.153846" height="2.153846" x="0.000000" y="0.000000" fill="rgb(0,0,0)" transform="matrix(-4.37114e-08,1,-1,-4.37114e-08,6.46094,25.8457)" />
        <rect width="2.153846" height="2.153846" x="0.000000" y="0.000000" fill="rgb(0,0,0)" transform="matrix(-4.37114e-08,1,-1,-4.37114e-08,4.3073,25.8457)" />
        <rect width="2.153846" height="2.153846" x="0.000000" y="0.000000" fill="rgb(0,0,0)" transform="matrix(-1,-8.74228e-08,8.74228e-08,-1,28,28)" />
        <rect width="2.153846" height="2.153846" x="0.000000" y="0.000000" fill="rgb(0,0,0)" transform="matrix(-1,-8.74228e-08,8.74228e-08,-1,28,25.8457)" />
        <rect width="2.153846" height="2.153846" x="0.000000" y="0.000000" fill="rgb(0,0,0)" transform="matrix(-1,-8.74228e-08,8.74228e-08,-1,28,23.6924)" />
        <rect width="2.153846" height="2.153846" x="0.000000" y="0.000000" fill="rgb(0,0,0)" transform="matrix(-1,-8.74228e-08,8.74228e-08,-1,28,21.5391)" />
        <rect width="2.153846" height="2.153846" x="0.000000" y="0.000000" fill="rgb(0,0,0)" transform="matrix(-1,-8.74228e-08,8.74228e-08,-1,28,19.3848)" />
        <rect width="2.153846" height="2.153846" x="0.000000" y="0.000000" fill="rgb(0,0,0)" transform="matrix(-1,-8.74228e-08,8.74228e-08,-1,28,17.2305)" />
        <rect width="2.153846" height="2.153846" x="0.000000" y="0.000000" fill="rgb(0,0,0)" transform="matrix(-1,-8.74228e-08,8.74228e-08,-1,28,15.0762)" />
        <rect width="2.153846" height="2.153846" x="0.000000" y="0.000000" fill="rgb(0,0,0)" transform="matrix(-1,-8.74228e-08,8.74228e-08,-1,28,12.9238)" />
        <rect width="2.153846" height="2.153846" x="0.000000" y="0.000000" fill="rgb(0,0,0)" transform="matrix(-1,-8.74228e-08,8.74228e-08,-1,28,10.7695)" />
        <rect width="2.153846" height="2.153846" x="0.000000" y="0.000000" fill="rgb(0,0,0)" transform="matrix(-1,-8.74228e-08,8.74228e-08,-1,28,8.61523)" />
        <rect width="2.153846" height="2.153846" x="0.000000" y="0.000000" fill="rgb(0,0,0)" transform="matrix(-1,-8.74228e-08,8.74228e-08,-1,28,6.46094)" />
      </symbol>
    </svg>