<svg viewBox="0 0 28 28" xmlns="http://www.w3.org/2000/svg" xmlns:xlink="http://www.w3.org/1999/xlink" width="28.000000" height="28.000000" fill="none" customFrame="#000000">
	<g id="floppy">
		<rect id="Rectangle 18" width="2.153846" height="2.153846" x="0.000000" y="0.000000" fill="rgb(0,0,0)" />
		<rect id="Rectangle 17" width="2.153846" height="2.153846" x="0.000000" y="2.154297" fill="rgb(0,0,0)" />
		<rect id="Rectangle 19" width="2.153846" height="2.153846" x="0.000000" y="4.307617" fill="rgb(0,0,0)" />
		<rect id="Rectangle 20" width="2.153846" height="2.153846" x="0.000000" y="6.460938" fill="rgb(0,0,0)" />
		<rect id="Rectangle 21" width="2.153846" height="2.153846" x="0.000000" y="8.615234" fill="rgb(0,0,0)" />
		<rect id="Rectangle 22" width="2.153846" height="2.153846" x="0.000000" y="10.769531" fill="rgb(0,0,0)" />
		<rect id="Rectangle 23" width="2.153846" height="2.153846" x="0.000000" y="12.923828" fill="rgb(0,0,0)" />
		<rect id="Rectangle 24" width="2.153846" height="2.153846" x="0.000000" y="15.076172" fill="rgb(0,0,0)" />
		<rect id="Rectangle 25" width="2.153846" height="2.153846" x="0.000000" y="17.230469" fill="rgb(0,0,0)" />
		<rect id="Rectangle 26" width="2.153846" height="2.153846" x="0.000000" y="19.384766" fill="rgb(0,0,0)" />
		<rect id="Rectangle 27" width="2.153846" height="2.153846" x="0.000000" y="21.539062" fill="rgb(0,0,0)" />
		<rect id="Rectangle 28" width="2.153846" height="2.153846" x="0.000000" y="23.692383" fill="rgb(0,0,0)" />
		<rect id="Rectangle 29" width="2.153846" height="2.153846" x="0.000000" y="25.845703" fill="rgb(0,0,0)" />
		<rect id="Rectangle 32" width="2.153846" height="2.153846" x="0.000000" y="0.000000" fill="rgb(0,0,0)" transform="matrix(-4.37114e-08,1,-1,-4.37114e-08,23.6927,0)" />
		<rect id="Rectangle 33" width="2.153846" height="2.153846" x="0.000000" y="0.000000" fill="rgb(0,0,0)" transform="matrix(-4.37114e-08,1,-1,-4.37114e-08,21.5391,0)" />
		<rect id="Rectangle 34" width="2.153846" height="2.153846" x="0.000000" y="0.000000" fill="rgb(0,0,0)" transform="matrix(-4.37114e-08,1,-1,-4.37114e-08,19.3841,0)" />
		<rect id="Rectangle 35" width="2.153846" height="2.153846" x="0.000000" y="0.000000" fill="rgb(0,0,0)" transform="matrix(-4.37114e-08,1,-1,-4.37114e-08,17.2305,0)" />
		<rect id="Rectangle 36" width="2.153846" height="2.153846" x="0.000000" y="0.000000" fill="rgb(0,0,0)" transform="matrix(-4.37114e-08,1,-1,-4.37114e-08,15.0768,0)" />
		<rect id="Rectangle 37" width="2.153846" height="2.153846" x="0.000000" y="0.000000" fill="rgb(0,0,0)" transform="matrix(-4.37114e-08,1,-1,-4.37114e-08,12.9232,0)" />
		<rect id="Rectangle 38" width="2.153846" height="2.153846" x="0.000000" y="0.000000" fill="rgb(0,0,0)" transform="matrix(-4.37114e-08,1,-1,-4.37114e-08,10.7695,0)" />
		<rect id="Rectangle 39" width="2.153846" height="2.153846" x="0.000000" y="0.000000" fill="rgb(0,0,0)" transform="matrix(-4.37114e-08,1,-1,-4.37114e-08,8.61589,0)" />
		<rect id="Rectangle 40" width="2.153846" height="2.153846" x="0.000000" y="0.000000" fill="rgb(0,0,0)" transform="matrix(-4.37114e-08,1,-1,-4.37114e-08,6.46094,0)" />
		<rect id="Rectangle 41" width="2.153846" height="2.153846" x="0.000000" y="0.000000" fill="rgb(0,0,0)" transform="matrix(-4.37114e-08,1,-1,-4.37114e-08,4.3073,0)" />
		<rect id="Rectangle 65" width="2.153846" height="2.153846" x="0.000000" y="0.000000" fill="rgb(0,0,0)" transform="matrix(-4.37114e-08,1,-1,-4.37114e-08,25.8464,2.1543)" />
		<rect id="Rectangle 85" width="2.153846" height="2.153846" x="0.000000" y="0.000000" fill="rgb(0,0,0)" transform="matrix(-4.37114e-08,1,-1,-4.37114e-08,6.46094,4.30762)" />
		<rect id="Rectangle 176" width="2.153846" height="2.153846" x="0.000000" y="0.000000" fill="rgb(0,0,0)" transform="matrix(-4.37114e-08,1,-1,-4.37114e-08,6.46094,2.1543)" />
		<rect id="Rectangle 96" width="2.153846" height="2.153846" x="0.000000" y="0.000000" fill="rgb(0,0,0)" transform="matrix(-4.37114e-08,1,-1,-4.37114e-08,6.46094,6.46094)" />
		<rect id="Rectangle 177" width="2.153846" height="2.153846" x="0.000000" y="0.000000" fill="rgb(0,0,0)" transform="matrix(-4.37114e-08,1,-1,-4.37114e-08,21.5391,4.30762)" />
		<rect id="Rectangle 178" width="2.153846" height="2.153846" x="0.000000" y="0.000000" fill="rgb(0,0,0)" transform="matrix(-4.37114e-08,1,-1,-4.37114e-08,21.5391,2.1543)" />
		<rect id="Rectangle 179" width="2.153846" height="2.153846" x="0.000000" y="0.000000" fill="rgb(0,0,0)" transform="matrix(-4.37114e-08,1,-1,-4.37114e-08,21.5391,6.46094)" />
		<rect id="Rectangle 180" width="2.153846" height="2.153846" x="0.000000" y="0.000000" fill="rgb(0,0,0)" transform="matrix(-4.37114e-08,1,-1,-4.37114e-08,17.2305,4.30762)" />
		<rect id="Rectangle 181" width="2.153846" height="2.153846" x="0.000000" y="0.000000" fill="rgb(0,0,0)" transform="matrix(-4.37114e-08,1,-1,-4.37114e-08,17.2305,2.1543)" />
		<rect id="Rectangle 182" width="2.153846" height="2.153846" x="0.000000" y="0.000000" fill="rgb(0,0,0)" transform="matrix(-4.37114e-08,1,-1,-4.37114e-08,17.2305,6.46094)" />
		<rect id="Rectangle 100" width="2.153846" height="2.153846" x="0.000000" y="0.000000" fill="rgb(0,0,0)" transform="matrix(-4.37114e-08,1,-1,-4.37114e-08,21.5391,8.61523)" />
		<rect id="Rectangle 101" width="2.153846" height="2.153846" x="0.000000" y="0.000000" fill="rgb(0,0,0)" transform="matrix(-4.37114e-08,1,-1,-4.37114e-08,19.3841,8.61523)" />
		<rect id="Rectangle 102" width="2.153846" height="2.153846" x="0.000000" y="0.000000" fill="rgb(0,0,0)" transform="matrix(-4.37114e-08,1,-1,-4.37114e-08,17.2305,8.61523)" />
		<rect id="Rectangle 103" width="2.153846" height="2.153846" x="0.000000" y="0.000000" fill="rgb(0,0,0)" transform="matrix(-4.37114e-08,1,-1,-4.37114e-08,15.0768,8.61523)" />
		<rect id="Rectangle 104" width="2.153846" height="2.153846" x="0.000000" y="0.000000" fill="rgb(0,0,0)" transform="matrix(-4.37114e-08,1,-1,-4.37114e-08,12.9232,8.61523)" />
		<rect id="Rectangle 105" width="2.153846" height="2.153846" x="0.000000" y="0.000000" fill="rgb(0,0,0)" transform="matrix(-4.37114e-08,1,-1,-4.37114e-08,10.7695,8.61523)" />
		<rect id="Rectangle 106" width="2.153846" height="2.153846" x="0.000000" y="0.000000" fill="rgb(0,0,0)" transform="matrix(-4.37114e-08,1,-1,-4.37114e-08,8.61589,8.61523)" />
		<rect id="Rectangle 107" width="2.153846" height="2.153846" x="0.000000" y="0.000000" fill="rgb(0,0,0)" transform="matrix(-4.37114e-08,1,-1,-4.37114e-08,6.46094,8.61523)" />
		<rect id="Rectangle 132" width="2.153846" height="2.153846" x="0.000000" y="0.000000" fill="rgb(0,0,0)" transform="matrix(-4.37114e-08,1,-1,-4.37114e-08,23.6927,15.0762)" />
		<rect id="Rectangle 133" width="2.153846" height="2.153846" x="0.000000" y="0.000000" fill="rgb(0,0,0)" transform="matrix(-4.37114e-08,1,-1,-4.37114e-08,21.5391,15.0762)" />
		<rect id="Rectangle 134" width="2.153846" height="2.153846" x="0.000000" y="0.000000" fill="rgb(0,0,0)" transform="matrix(-4.37114e-08,1,-1,-4.37114e-08,19.3841,15.0762)" />
		<rect id="Rectangle 135" width="2.153846" height="2.153846" x="0.000000" y="0.000000" fill="rgb(0,0,0)" transform="matrix(-4.37114e-08,1,-1,-4.37114e-08,17.2305,15.0762)" />
		<rect id="Rectangle 136" width="2.153846" height="2.153846" x="0.000000" y="0.000000" fill="rgb(0,0,0)" transform="matrix(-4.37114e-08,1,-1,-4.37114e-08,15.0768,15.0762)" />
		<rect id="Rectangle 137" width="2.153846" height="2.153846" x="0.000000" y="0.000000" fill="rgb(0,0,0)" transform="matrix(-4.37114e-08,1,-1,-4.37114e-08,12.9232,15.0762)" />
		<rect id="Rectangle 138" width="2.153846" height="2.153846" x="0.000000" y="0.000000" fill="rgb(0,0,0)" transform="matrix(-4.37114e-08,1,-1,-4.37114e-08,10.7695,15.0762)" />
		<rect id="Rectangle 139" width="2.153846" height="2.153846" x="0.000000" y="0.000000" fill="rgb(0,0,0)" transform="matrix(-4.37114e-08,1,-1,-4.37114e-08,8.61589,15.0762)" />
		<rect id="Rectangle 140" width="2.153846" height="2.153846" x="0.000000" y="0.000000" fill="rgb(0,0,0)" transform="matrix(-4.37114e-08,1,-1,-4.37114e-08,6.46094,15.0762)" />
		<rect id="Rectangle 143" width="2.153846" height="2.153846" x="0.000000" y="0.000000" fill="rgb(0,0,0)" transform="matrix(-4.37114e-08,1,-1,-4.37114e-08,23.6927,17.2305)" />
		<rect id="Rectangle 151" width="2.153846" height="2.153846" x="0.000000" y="0.000000" fill="rgb(0,0,0)" transform="matrix(-4.37114e-08,1,-1,-4.37114e-08,6.46094,17.2305)" />
		<rect id="Rectangle 154" width="2.153846" height="2.153846" x="0.000000" y="0.000000" fill="rgb(0,0,0)" transform="matrix(-4.37114e-08,1,-1,-4.37114e-08,23.6927,19.3848)" />
		<rect id="Rectangle 162" width="2.153846" height="2.153846" x="0.000000" y="0.000000" fill="rgb(0,0,0)" transform="matrix(-4.37114e-08,1,-1,-4.37114e-08,6.46094,19.3848)" />
		<rect id="Rectangle 165" width="2.153846" height="2.153846" x="0.000000" y="0.000000" fill="rgb(0,0,0)" transform="matrix(-4.37114e-08,1,-1,-4.37114e-08,23.6927,21.5391)" />
		<rect id="Rectangle 173" width="2.153846" height="2.153846" x="0.000000" y="0.000000" fill="rgb(0,0,0)" transform="matrix(-4.37114e-08,1,-1,-4.37114e-08,6.46094,21.5391)" />
		<rect id="Rectangle 174" width="2.153846" height="2.153846" x="0.000000" y="0.000000" fill="rgb(0,0,0)" transform="matrix(-4.37114e-08,1,-1,-4.37114e-08,6.46094,23.6924)" />
		<rect id="Rectangle 175" width="2.153846" height="2.153846" x="0.000000" y="0.000000" fill="rgb(0,0,0)" transform="matrix(-4.37114e-08,1,-1,-4.37114e-08,23.6927,23.6924)" />
		<rect id="Rectangle 54" width="2.153846" height="2.153846" x="0.000000" y="0.000000" fill="rgb(0,0,0)" transform="matrix(-4.37114e-08,1,-1,-4.37114e-08,25.8464,25.8457)" />
		<rect id="Rectangle 55" width="2.153846" height="2.153846" x="0.000000" y="0.000000" fill="rgb(0,0,0)" transform="matrix(-4.37114e-08,1,-1,-4.37114e-08,23.6927,25.8457)" />
		<rect id="Rectangle 56" width="2.153846" height="2.153846" x="0.000000" y="0.000000" fill="rgb(0,0,0)" transform="matrix(-4.37114e-08,1,-1,-4.37114e-08,21.5391,25.8457)" />
		<rect id="Rectangle 57" width="2.153846" height="2.153846" x="0.000000" y="0.000000" fill="rgb(0,0,0)" transform="matrix(-4.37114e-08,1,-1,-4.37114e-08,19.3841,25.8457)" />
		<rect id="Rectangle 58" width="2.153846" height="2.153846" x="0.000000" y="0.000000" fill="rgb(0,0,0)" transform="matrix(-4.37114e-08,1,-1,-4.37114e-08,17.2305,25.8457)" />
		<rect id="Rectangle 59" width="2.153846" height="2.153846" x="0.000000" y="0.000000" fill="rgb(0,0,0)" transform="matrix(-4.37114e-08,1,-1,-4.37114e-08,15.0768,25.8457)" />
		<rect id="Rectangle 60" width="2.153846" height="2.153846" x="0.000000" y="0.000000" fill="rgb(0,0,0)" transform="matrix(-4.37114e-08,1,-1,-4.37114e-08,12.9232,25.8457)" />
		<rect id="Rectangle 61" width="2.153846" height="2.153846" x="0.000000" y="0.000000" fill="rgb(0,0,0)" transform="matrix(-4.37114e-08,1,-1,-4.37114e-08,10.7695,25.8457)" />
		<rect id="Rectangle 62" width="2.153846" height="2.153846" x="0.000000" y="0.000000" fill="rgb(0,0,0)" transform="matrix(-4.37114e-08,1,-1,-4.37114e-08,8.61589,25.8457)" />
		<rect id="Rectangle 63" width="2.153846" height="2.153846" x="0.000000" y="0.000000" fill="rgb(0,0,0)" transform="matrix(-4.37114e-08,1,-1,-4.37114e-08,6.46094,25.8457)" />
		<rect id="Rectangle 64" width="2.153846" height="2.153846" x="0.000000" y="0.000000" fill="rgb(0,0,0)" transform="matrix(-4.37114e-08,1,-1,-4.37114e-08,4.3073,25.8457)" />
		<rect id="Rectangle 42" width="2.153846" height="2.153846" x="0.000000" y="0.000000" fill="rgb(0,0,0)" transform="matrix(-1,-8.74228e-08,8.74228e-08,-1,28,28)" />
		<rect id="Rectangle 43" width="2.153846" height="2.153846" x="0.000000" y="0.000000" fill="rgb(0,0,0)" transform="matrix(-1,-8.74228e-08,8.74228e-08,-1,28,25.8457)" />
		<rect id="Rectangle 44" width="2.153846" height="2.153846" x="0.000000" y="0.000000" fill="rgb(0,0,0)" transform="matrix(-1,-8.74228e-08,8.74228e-08,-1,28,23.6924)" />
		<rect id="Rectangle 45" width="2.153846" height="2.153846" x="0.000000" y="0.000000" fill="rgb(0,0,0)" transform="matrix(-1,-8.74228e-08,8.74228e-08,-1,28,21.5391)" />
		<rect id="Rectangle 46" width="2.153846" height="2.153846" x="0.000000" y="0.000000" fill="rgb(0,0,0)" transform="matrix(-1,-8.74228e-08,8.74228e-08,-1,28,19.3848)" />
		<rect id="Rectangle 47" width="2.153846" height="2.153846" x="0.000000" y="0.000000" fill="rgb(0,0,0)" transform="matrix(-1,-8.74228e-08,8.74228e-08,-1,28,17.2305)" />
		<rect id="Rectangle 48" width="2.153846" height="2.153846" x="0.000000" y="0.000000" fill="rgb(0,0,0)" transform="matrix(-1,-8.74228e-08,8.74228e-08,-1,28,15.0762)" />
		<rect id="Rectangle 49" width="2.153846" height="2.153846" x="0.000000" y="0.000000" fill="rgb(0,0,0)" transform="matrix(-1,-8.74228e-08,8.74228e-08,-1,28,12.9238)" />
		<rect id="Rectangle 50" width="2.153846" height="2.153846" x="0.000000" y="0.000000" fill="rgb(0,0,0)" transform="matrix(-1,-8.74228e-08,8.74228e-08,-1,28,10.7695)" />
		<rect id="Rectangle 51" width="2.153846" height="2.153846" x="0.000000" y="0.000000" fill="rgb(0,0,0)" transform="matrix(-1,-8.74228e-08,8.74228e-08,-1,28,8.61523)" />
		<rect id="Rectangle 52" width="2.153846" height="2.153846" x="0.000000" y="0.000000" fill="rgb(0,0,0)" transform="matrix(-1,-8.74228e-08,8.74228e-08,-1,28,6.46094)" />
	</g>
</svg>
